<?xml version="1.0" encoding="utf-8"?>
<!-- Generator: Adobe Illustrator 22.0.0, SVG Export Plug-In . SVG Version: 6.00 Build 0)  -->
<svg version="1.1" id="f36e36b5-a914-4189-a8f7-2c7091a7d461"
	 xmlns="http://www.w3.org/2000/svg" xmlns:xlink="http://www.w3.org/1999/xlink" x="0px" y="0px" viewBox="0 0 676 676"
	 style="enable-background:new 0 0 676 676;" xml:space="preserve">
<style type="text/css">
	.st0{fill:#E4060B;}
	.st1{opacity:0.2;enable-background:new    ;}
	.st2{fill:#2F2E41;}
	.st3{fill:#82483C;}
	.st4{fill:#D0CDE1;}
</style>
<title>female_avatar</title>
<path class="st0" d="M676,338c0.1,43.4-8.3,86.4-24.5,126.7c0,0.1-0.1,0.2-0.1,0.3v0c-10.9,27-25.3,52.4-42.8,75.6
	c-3.4,4.5-6.8,8.9-10.4,13.2c-1.3,1.6-2.6,3.2-4,4.7c-6.9,8-14.1,15.6-21.6,22.8c-1.8,1.7-3.5,3.4-5.3,5c-0.4,0.4-0.8,0.8-1.3,1.2
	c-8.8,8-18,15.6-27.7,22.7c-6.4,4.8-13.1,9.3-19.9,13.6c-1.5,1-3,1.9-4.5,2.8c-2.6,1.6-5.3,3.2-7.9,4.7c-3.5,2-7,3.9-10.6,5.8
	c-1.4,0.8-2.9,1.5-4.3,2.2c-2.1,1.1-4.2,2.1-6.4,3.2c-0.4,0.2-0.7,0.4-1.1,0.5c-1.4,0.7-2.8,1.3-4.2,2
	c-18.5,8.5-37.7,15.4-57.5,20.4c-0.1,0-0.2,0-0.3,0.1c-1.3,0.3-2.6,0.7-3.9,1c-1,0.2-2,0.5-2.9,0.7c-0.1,0-0.2,0.1-0.4,0.1
	c-2,0.5-4,0.9-6,1.3c-1.1,0.2-2.3,0.5-3.4,0.7c-0.7,0.2-1.4,0.3-2.1,0.4c-0.9,0.2-1.7,0.3-2.6,0.5c-0.5,0.1-1,0.2-1.5,0.3
	c-1.1,0.2-2.2,0.4-3.3,0.6c-1.9,0.3-3.7,0.6-5.6,0.9c-1.4,0.2-2.7,0.4-4.1,0.6c-1.6,0.2-3.2,0.4-4.8,0.6c-0.4,0.1-0.9,0.1-1.3,0.2
	c-0.6,0.1-1.1,0.1-1.7,0.2c-1.2,0.1-2.3,0.3-3.5,0.4c-0.6,0.1-1.2,0.1-1.8,0.2c-1.1,0.1-2.3,0.2-3.4,0.3c-1.5,0.1-2.9,0.3-4.4,0.4
	c-1.8,0.1-3.6,0.3-5.4,0.4c-1.2,0.1-2.3,0.1-3.5,0.2c-3,0.2-6,0.3-9,0.3c-1.5,0-3,0.1-4.5,0.1h0c-1.5,0-3,0-4.5,0
	c-15.2,0-30.4-1-45.5-3c-11-1.5-21.9-3.5-32.6-6c-0.4-0.1-0.9-0.2-1.3-0.3c-1.1-0.2-2.2-0.5-3.2-0.8c-1-0.2-1.9-0.5-2.8-0.7
	c-24.5-6.4-48.2-15.5-70.6-27.2c-0.1-0.1-0.2-0.1-0.3-0.2c-0.6-0.3-1.3-0.7-1.9-1c-1.4-0.7-2.8-1.5-4.2-2.3c-8-4.4-15.7-9-23.2-14
	c-1.9-1.3-3.9-2.6-5.8-3.9c-0.6-0.4-1.2-0.8-1.8-1.3c-0.6-0.4-1.3-0.9-1.9-1.3c-1.7-1.2-3.3-2.4-4.9-3.5c-6.7-5-13.3-10.2-19.6-15.6
	c-22.5-19.3-42.4-41.4-59.2-65.8c-5.8-8.5-11.3-17.3-16.4-26.4C14.6,452.3-0.1,395.6,0,338C0,151.3,151.3,0,338,0S676,151.3,676,338
	z"/>
<path class="st1" d="M392.3,666.6c1.1-0.2,2.2-0.5,3.2-0.8c1-0.2,1.9-0.5,2.8-0.7c0-2,0.1-4.2,0.2-6.5c0.6-18.6,2-48.4,5.3-84.4
	c0.2-1.9,0.4-3.9,0.5-5.8c1.2-12.2,2.5-25,4.2-38.3c0-0.4,0.1-0.9,0.2-1.3c1.3-10.8,2.8-21.8,4.5-33.1c1.2-7.9,2.5-15.9,3.9-23.9
	c0.1-0.6,0.2-1.1,0.3-1.7c0.4-2.3,0.8-4.7,1.2-7c1.2-6.5,2.4-13.1,3.7-19.6c4.6-23,10.1-46.2,16.7-68.8
	c6.7-23.4,14.8-46.3,24.5-68.6c7.5-17.3,16.5-34,26.7-49.8c0.2-0.2,0.3-0.5,0.5-0.7c13.2-19.8,28.2-36.6,45.3-49.2l-3.6-4.9
	c-16.4,12.1-31.5,28.1-45.2,48.1c-0.1,0.1-0.1,0.2-0.2,0.3c-10.3,15.3-19.3,31.4-26.9,48.3c-10.2,22.5-18.8,45.7-25.7,69.4
	c-6.6,22-12.4,45.9-17.7,71.6c-1.8,9-3.6,18.3-5.2,27.8c-0.3,1.6-0.6,3.2-0.8,4.9c0,0,0,0,0,0.1c-0.4,2.5-0.8,5-1.3,7.5
	c-1,6.4-2,12.7-2.9,19c-1.4,9.7-2.7,19.2-3.8,28.5c-0.4,3.1-0.7,6.1-1.1,9.2c-0.5,4.3-1,8.5-1.4,12.7c-0.6,5.8-1.2,11.5-1.7,17
	l-0.2,1.5c-0.1,0.9-0.2,1.8-0.2,2.6C394,613.5,392.8,648.9,392.3,666.6z"/>
<path class="st1" d="M469,637.9c0.1-0.1,0.2-0.1,0.3-0.2c2.1-1.1,4.1-2.2,6.1-3.3c0.7-8,1.6-16.8,2.8-26c0.2-1.9,0.5-3.8,0.8-5.8
	c0.1-1,0.3-2.1,0.4-3.2c1.2-8.1,2.6-16.5,4.3-24.9c6.8-34.4,18.2-69.5,37-91.2c1-1.2,2-2.3,3.1-3.4c2.7-2.8,5.5-5.3,8.6-7.5
	l-3.6-4.8c-4.3,3.2-8.3,6.8-11.8,10.8c-1.2,1.4-2.5,2.8-3.7,4.3c-17.3,21.8-28.2,54.1-34.9,86.1c-1.8,8.3-3.2,16.7-4.5,24.8
	c-0.3,2.1-0.6,4.2-0.9,6.3C471.2,613.7,469.9,626.7,469,637.9z"/>
<circle class="st1" cx="569.7" cy="176" r="30.1"/>
<circle class="st1" cx="560" cy="435" r="30.1"/>
<path class="st1" d="M450.3,226.5c6.4,36-7.7,68.6-7.7,68.6s-24.4-25.8-30.8-61.8s7.7-68.6,7.7-68.6S443.9,190.5,450.3,226.5z"/>
<path class="st1" d="M550.3,312c-34.3,12.6-68.8,4.5-68.8,4.5s21.2-28.4,55.5-41s68.8-4.5,68.8-4.5S584.6,299.4,550.3,312z"/>
<path class="st1" d="M556.1,541.3c-24.1,8.8-48.3,3.1-48.3,3.1s14.8-20,38.9-28.8c24.1-8.8,48.3-3.1,48.3-3.1
	S580.2,532.5,556.1,541.3z"/>
<path class="st2" d="M440,536.3l1.2,0.6C441.1,538.2,440.8,539,440,536.3z"/>
<path class="st2" d="M441.6,536.7c0,0.1,0,0.3,0,0.4l-0.4-0.2c0-0.1,0-0.3,0-0.4C441.3,534.7,441.2,532.7,441.6,536.7z"/>
<circle class="st2" cx="311.7" cy="324.6" r="164.2"/>
<circle class="st3" cx="325.2" cy="382.7" r="99.4"/>
<path class="st3" d="M552.3,573.3l-0.1,0l-23.1,5.5l-48.2,11.6l-6.6,1.6L401,609.6l-6.2,1.5l-177.7,42.6c-12-4.6-23.7-9.9-35.1-15.8
	c-0.1-0.1-0.2-0.1-0.3-0.2c-0.6-0.3-1.3-0.7-1.9-1c-1.4-0.7-2.8-1.5-4.2-2.3c-7.9-4.4-15.7-9-23.2-14c-1.9-1.3-3.9-2.6-5.8-3.9
	c-0.6-0.4-1.2-0.8-1.8-1.3c-0.6-0.4-1.3-0.9-1.9-1.3c-1.6-1.2-3.3-2.4-4.9-3.5c17.3-31.4,58.4-52.2,99.5-63.6
	c31-8.6,37.8-36.9,37.2-62.2c-0.2-5.8-0.6-11.5-1.5-17.2c-1.3-9.1-3.2-18-6-26.7l99.5,3.3l10.3,23.6c-0.3,2.6-0.4,5.2-0.3,7.8
	c0.8,19.4,12.8,31.9,27.5,40c1.9,1.1,3.9,2,5.9,2.9c24.2,11,52.7,11.8,52.7,11.8c8.7-1,17.5-0.8,26.1,0.5c2.1,0.3,4.1,0.7,6.1,1.2
	c11.6,2.6,22.5,7.5,32.1,14.4c3.7,2.6,7.2,5.5,10.4,8.6C543.3,560.3,548.3,566.5,552.3,573.3z"/>
<path class="st4" d="M567.2,586.4c-0.4,0.4-0.8,0.8-1.3,1.2c-8.8,8-18,15.6-27.7,22.7c-6.4,4.8-13.1,9.3-19.9,13.6
	c-1.5,1-3,1.9-4.5,2.8c-2.6,1.6-5.3,3.2-7.9,4.7c-3.5,2-7,3.9-10.6,5.8c-1.4,0.8-2.9,1.5-4.3,2.2c-2.1,1.1-4.2,2.1-6.4,3.2
	c-0.4,0.2-0.7,0.4-1.1,0.5l-4.2-3.5l49.7-60.7l10-12.2c0,0,4,0,13.1,6.7c5.1,3.8,9.8,7.9,14.3,12.3
	C566.7,585.9,566.9,586.2,567.2,586.4z"/>
<path class="st2" d="M566.5,585.7c-0.1,0.6-0.3,1.2-0.6,1.8c-8.8,8-18,15.6-27.7,22.7c-8.3,3-17,5.1-25.8,6.1c0,0,0.8,3.8,1.4,10.3
	c-2.6,1.6-5.3,3.2-7.9,4.7c-3.5,2-7,3.9-10.6,5.8c-1.4,0.8-2.9,1.5-4.3,2.2c-2.1,1.1-4.2,2.1-6.4,3.2c-0.4,0.2-0.7,0.4-1.1,0.5
	c-1.4,0.7-2.8,1.3-4.2,2c-18.5,8.5-37.7,15.4-57.5,20.4c-0.1,0-0.2,0-0.3,0.1c-1.3,0.3-2.6,0.7-3.9,1c-1,0.2-2,0.5-2.9,0.7
	c-0.1,0-0.2,0.1-0.4,0.1c-2,0.5-4,0.9-6,1.3c-1.1,0.2-2.3,0.5-3.4,0.7c-0.7,0.2-1.4,0.3-2.1,0.4c-0.9,0.2-1.7,0.3-2.6,0.5
	c-0.5,0.1-1,0.2-1.5,0.3c-1.1,0.2-2.2,0.4-3.3,0.6c-1.9,0.3-3.7,0.6-5.6,0.9c-1.4,0.2-2.7,0.4-4.1,0.6c-1.6,0.2-3.2,0.4-4.8,0.6
	c-0.4,0.1-0.9,0.1-1.3,0.2c-0.6,0.1-1.1,0.1-1.7,0.2c-1.2,0.1-2.3,0.3-3.5,0.4c-0.6,0.1-1.2,0.1-1.8,0.2c-1.1,0.1-2.3,0.2-3.4,0.3
	c-1.5,0.1-2.9,0.3-4.4,0.4c-1.8,0.1-3.6,0.3-5.4,0.4c-1.2,0.1-2.3,0.1-3.5,0.2c-3,0.2-6,0.3-9,0.3c-1.5,0-3,0.1-4.5,0.1h0
	c-1.5,0-3,0-4.5,0c-15.2,0-30.4-1-45.5-3c-11-1.5-21.9-3.5-32.6-6c-0.4-0.1-0.9-0.2-1.3-0.3c-1.1-0.2-2.2-0.5-3.2-0.8
	c-1-0.2-1.9-0.5-2.8-0.7c-24.5-6.4-48.2-15.5-70.6-27.2c-0.1-0.1-0.2-0.1-0.3-0.2c-0.6-0.3-1.3-0.7-1.9-1
	c54.9-12.8,141.6-33,216.9-50.2c2.1-0.5,4.2-1,6.3-1.4c27.8-6.4,53.8-12.3,75.9-17.3c2.3-0.5,4.5-1,6.7-1.5
	c23.7-5.3,42.1-9.4,52-11.4c2.7-0.6,5.4-1.1,8.1-1.4L566.5,585.7L566.5,585.7z"/>
<path class="st2" d="M311.7,247.8c-57.9,0-104.8,27.4-104.8,61.1c0,15.1,9.4,28.9,25,39.6l11.1-0.2l3.6,8.5c2.3,1.1,4.6,2.1,7,3
	l20.4-2.5l9.7,10.6c9.2,1.5,18.6,2.2,28,2.2c57.9,0,104.8-27.4,104.8-61.1S369.6,247.8,311.7,247.8z"/>
<path class="st2" d="M413,191.9c0,0-7.6,34.9,39.9,48.9L413,191.9z"/>
<path class="st2" d="M206.9,198.2c0,0,17.5,39.1-34.9,56.5L206.9,198.2z"/>
<ellipse transform="matrix(0.963 -0.2696 0.2696 0.963 -100.1151 76.2123)" class="st3" cx="227.4" cy="402.6" rx="8.3" ry="19.9"/>
<ellipse transform="matrix(6.147065e-02 -0.9981 0.9981 6.147065e-02 14.7997 787.7941)" class="st3" cx="426.3" cy="386" rx="19.9" ry="8.3"/>
</svg>
