<?xml version="1.0" encoding="utf-8"?>
<!-- Generator: Adobe Illustrator 22.0.0, SVG Export Plug-In . SVG Version: 6.00 Build 0)  -->
<svg version="1.1" id="e59edb86-a3bc-4694-8aac-31e565ca5cfc"
	 xmlns="http://www.w3.org/2000/svg" xmlns:xlink="http://www.w3.org/1999/xlink" x="0px" y="0px" viewBox="0 0 676 676"
	 style="enable-background:new 0 0 676 676;" xml:space="preserve">
<style type="text/css">
	.st0{fill:#E4060B;}
	.st1{opacity:0.2;enable-background:new    ;}
	.st2{fill:#82483C;}
	.st3{fill:#2F2E41;}
</style>
<title>male_avatar</title>
<path class="st0" d="M676,338c0.1,45.8-9.2,91-27.2,133.1l-1.1,2.6c-62.7,142.7-214.8,224.1-368.3,197.2c-2-0.4-4.1-0.7-6.1-1.1
	c-20.9-4.1-41.4-10.1-61.1-18c-3.2-1.3-6.4-2.6-9.6-4c-2.2-0.9-4.3-1.9-6.5-2.9C76.6,589.5,0.1,469.7,0,338C0,151.3,151.3,0,338,0
	S676,151.3,676,338z"/>
<path class="st1" d="M279.3,670.9c-2-0.4-4.1-0.7-6.1-1.1c-1.3-38.3-5.8-116.9-21.3-199.3c-8.4-45.1-20.2-91.3-36.4-132.6
	c-5.6-14.3-11.9-28.3-19.1-41.8c-16.4-31-36.4-57.2-60.6-74.9l3.6-4.9c20.1,14.7,38.2,35.4,54.2,62.1c4.8,8,9.4,16.5,13.9,25.5
	c4.8,9.7,9.3,20,13.6,30.8c2.8,6.9,5.4,14.1,8,21.5c11.2,32.1,20.6,68.8,28.5,110c1.7,9.1,3.4,18.4,4.9,28
	C274.6,568.2,278.2,636.6,279.3,670.9z"/>
<path class="st1" d="M202.6,647.8c-2.2-0.9-4.3-1.9-6.5-2.9c-2.1-22.7-5.9-50.9-13-77.6c-3.1-12-7-23.8-11.8-35.2
	c-8-18.8-18.4-34.7-31.8-44.5l3.6-4.8c14,10.3,24.9,26.5,33.2,45.5c9.4,21.4,15.7,46.3,19.9,70.2
	C199.4,616.1,201.3,633.2,202.6,647.8z"/>
<circle class="st1" cx="102.3" cy="191" r="30.1"/>
<ellipse transform="matrix(7.088900e-02 -0.9975 0.9975 7.088900e-02 -344.8435 529.7612)" class="st1" cx="112" cy="450" rx="30.1" ry="30.1"/>
<path class="st1" d="M221.7,241.5c-6.4,36,7.7,68.6,7.7,68.6s24.4-25.8,30.8-61.8s-7.7-68.6-7.7-68.6S228.1,205.5,221.7,241.5z"/>
<path class="st1" d="M121.7,327c34.3,12.6,68.8,4.5,68.8,4.5s-21.2-28.4-55.5-41S66.2,286,66.2,286S87.4,314.4,121.7,327z"/>
<path class="st1" d="M115.9,556.3c24.1,8.8,48.3,3.1,48.3,3.1s-14.8-20-38.9-28.8S77,527.5,77,527.5S91.8,547.5,115.9,556.3z"/>
<circle class="st2" cx="337.3" cy="281.1" r="131.8"/>
<path class="st2" d="M285.8,382c0,0,16.5,78.2,16.5,86.5s78.2,45.3,78.2,45.3l70-12.4l24.7-74.1c0,0-41.2-61.8-41.2-86.5L285.8,382z
	"/>
<path class="st3" d="M648.8,471.1l-1.1,2.6c-62.7,142.7-214.8,224.1-368.3,197.2c-2-0.4-4.1-0.7-6.1-1.1
	c-20.9-4.1-41.4-10.1-61.1-18c-3.2-1.3-6.4-2.6-9.6-4c-2.2-0.9-4.3-1.9-6.5-2.9c-19.4-9-37.9-19.8-55.2-32.3l-15.6-45.3l8.8-6.7
	l18.1-13.8l19.3-14.7l5-3.8l75.6-57.7l5.6-4.3l39.3-30l0,0c0,0,42.5,69.2,104.3,48.7s60.4-79.6,60.4-79.6L648.8,471.1z"/>
<path class="st3" d="M215.4,171.3c3.8-2.7,7-6.3,9.4-10.4c11.9-20.2,54.6-36.6,120-42.7c80.1-7.4,122,49.5,125.4,79.1
	s-1.7,74.2-1.7,74.2s-8.5-61-62.7-47.8c-54.2,13.2-138.9,3.3-138.9,3.3l-13.6,118.7c0,0-15.2-21.4-32.2-8.2
	C204.7,350.2,168.9,204.2,215.4,171.3z"/>
<path class="st3" d="M212.1,651.8c-3.2-1.3-6.4-2.6-9.6-4c-2.2-0.9-4.3-1.9-6.5-2.9c-32.1-14.9-61.6-34.7-87.6-58.7
	c9.2-12.5,16.7-18.9,16.7-18.9H187l9.3,31.1L212.1,651.8z"/>
<path class="st3" d="M594.7,464.3l53,9.4c-14.2,32.3-33.3,62.2-56.8,88.6L594.7,464.3z"/>
</svg>
